<?xml version="1.0" encoding="utf-8"?>
<!-- Generator: Adobe Illustrator 20.0.0, SVG Export Plug-In . SVG Version: 6.00 Build 0)  -->
<svg version="1.1" id="Слой_1" xmlns="http://www.w3.org/2000/svg" xmlns:xlink="http://www.w3.org/1999/xlink" x="0px" y="0px"
	 viewBox="0 0 22 32" style="enable-background:new 0 0 22 32;" xml:space="preserve">
<style type="text/css">
	.st0{fill:#CD700B;}
</style>
<title>arrow-down-big</title>
<path id="Arrow_Download" class="st0" d="M21.7,20.4c-0.4-0.4-1-0.4-1.4,0c0,0,0,0,0,0L12,28.6V1c0-0.6-0.4-1-1-1c-0.6,0-1,0.4-1,1
	v27.6l-8.3-8.2c-0.4-0.4-1-0.4-1.4,0c0,0,0,0,0,0c-0.4,0.4-0.4,1,0,1.4l10,9.9c0.4,0.4,1,0.4,1.4,0c0,0,0,0,0,0l10-9.9
	C22.1,21.4,22.1,20.8,21.7,20.4C21.7,20.4,21.7,20.4,21.7,20.4L21.7,20.4z"/>
</svg>
