<svg id="Layer_1" data-name="Layer 1" xmlns="http://www.w3.org/2000/svg" viewBox="0 0 362.34 382.54"><title>calendar</title><rect x="0.03" y="20.55" width="362.31" height="19.12"/><rect x="0.03" y="363.29" width="362.31" height="19.12"/><rect x="0.03" y="20.55" width="19.12" height="361.86"/><rect x="343.22" y="20.55" width="19.09" height="361.99"/><rect y="100.96" width="362.31" height="19.12"/><rect x="80.95" width="19.12" height="60.29"/><rect x="262.4" width="19.12" height="60.29"/><rect x="110.73" y="171.05" width="19.8" height="19.8"/><rect x="171.73" y="171.05" width="19.8" height="19.8"/><rect x="231.73" y="171.05" width="19.8" height="19.8"/><rect x="292.73" y="171.05" width="19.8" height="19.8"/><rect x="110.73" y="292.22" width="19.8" height="19.8"/><rect x="171.73" y="292.22" width="19.8" height="19.8"/><rect x="231.73" y="292.22" width="19.8" height="19.8"/><rect x="292.73" y="292.22" width="19.8" height="19.8"/><rect x="110.73" y="231.84" width="19.8" height="19.8"/><rect x="171.73" y="231.84" width="19.8" height="19.8"/><rect x="292.73" y="231.84" width="19.8" height="19.8"/><rect x="50.43" y="231.84" width="19.8" height="19.8"/><rect x="50.43" y="292.22" width="19.8" height="19.8"/><rect x="211.45" y="211.64" width="19.12" height="60.24"/><rect x="252.84" y="211.64" width="19.12" height="60.19"/><rect x="211.67" y="211.59" width="60.29" height="19.12"/><rect x="211.48" y="252.76" width="60.47" height="19.12"/></svg>