<?xml version="1.0" encoding="utf-8"?>
<!-- Generator: Adobe Illustrator 16.0.2, SVG Export Plug-In . SVG Version: 6.00 Build 0)  -->
<!DOCTYPE svg PUBLIC "-//W3C//DTD SVG 1.1//EN" "http://www.w3.org/Graphics/SVG/1.1/DTD/svg11.dtd">
<svg version="1.1" id="Layer_1" xmlns="http://www.w3.org/2000/svg" xmlns:xlink="http://www.w3.org/1999/xlink" x="0px" y="0px"
	 width="72px" height="76px" viewBox="0 0 72 76" enable-background="new 0 0 72 76" xml:space="preserve">
<rect x="0.01" y="4.019" width="71.991" height="3.938"/>
<rect x="-0.002" y="72.063" width="71.991" height="3.938"/>
<rect x="0.01" y="4.019" width="3.938" height="71.991"/>
<rect x="68.063" y="4.019" width="3.938" height="71.991"/>
<rect x="-0.001" y="19.998" width="71.991" height="3.938"/>
<rect x="16.01" y="0.003" width="3.938" height="11.995"/>
<rect x="52.072" y="-0.01" width="3.938" height="11.995"/>
<rect x="21.999" y="33.998" width="3.969" height="3.969"/>
<rect x="9.999" y="46.061" width="3.969" height="3.969"/>
<rect x="21.999" y="46.061" width="3.969" height="3.969"/>
<rect x="9.999" y="58.061" width="3.969" height="3.969"/>
<rect x="21.999" y="58.061" width="3.969" height="3.969"/>
<rect x="34.021" y="33.998" width="3.969" height="3.969"/>
<rect x="45.999" y="33.998" width="3.969" height="3.969"/>
<rect x="57.999" y="33.998" width="3.969" height="3.969"/>
<rect x="34.021" y="46.061" width="3.969" height="3.969"/>
<rect x="34.021" y="58.061" width="3.969" height="3.969"/>
<rect x="57.999" y="46.061" width="3.969" height="3.969"/>
<rect x="57.999" y="58.061" width="3.969" height="3.969"/>
<rect x="45.999" y="58.061" width="3.969" height="3.969"/>
<rect x="42.015" y="41.998" width="11.984" height="3.984"/>
<rect x="42.015" y="41.998" width="3.984" height="11.984"/>
<rect x="50.007" y="41.998" width="3.984" height="11.984"/>
<rect x="42.015" y="49.998" width="11.984" height="3.984"/>
</svg>
